<svg xmlns="http://www.w3.org/2000/svg" >
  <defs>
    <symbol id="brand" viewBox="0 0 64 108">
      <path fill="currentColor" d="M63.9502 72.2978C63.6726 66.9405 62.8396 61.6101 62.5064 56.2528C62.201 51.1109 61.8956 45.9689 60.9237 40.8809C60.2574 37.4349 59.23 34.0967 57.2031 31.1354C56.9254 30.7316 56.5922 30.1393 55.9536 30.3008C55.3983 30.4624 55.4816 31.0816 55.4538 31.5392C55.2872 34.689 54.2321 37.5965 53.0937 40.504C49.5674 49.4418 44.8749 57.6527 38.0445 64.6522C33.4908 69.3096 28.4374 73.4823 23.856 78.1128C22.19 79.8088 20.2742 81.1548 18.1084 82.1778C13.6103 84.3315 10.7455 88.3966 8.88515 92.8386C8.16324 94.5885 8.75123 95.6923 9.13995 97.3614C10.9448 95.8807 12.0276 94.1577 12.8606 92.2194C13.166 91.4925 14.2718 90.6212 14.9937 90.2173C17.2428 88.952 19.108 88.3966 21.718 88.3159C22.8286 88.2889 23.1063 88.6928 22.6343 89.6888C21.9401 91.0887 20.9128 92.2463 19.6911 93.2424C18.3305 94.3731 16.97 95.5307 15.6928 96.7691C13.166 99.1382 14.0546 101.776 15.2207 103.822C15.4429 104.226 15.6928 104.388 16.1648 104.145C16.9145 103.769 17.6364 103.392 18.3305 102.934C18.7748 102.638 19.2191 102.315 19.6355 101.965C19.8299 101.803 19.9965 101.642 20.1909 101.48C20.3297 101.373 20.4408 101.292 20.5518 101.157C20.6074 101.103 20.6629 101.05 20.6907 100.996C20.8295 100.807 20.5796 100.726 20.4963 100.565C20.1909 100.08 20.3852 99.7304 20.774 99.4343C21.1627 99.1381 21.6347 99.0035 21.9957 99.4074C22.7176 100.242 23.2729 99.8919 23.856 99.2458C24.2447 98.842 24.7723 98.5459 25.3276 98.3844C25.6886 98.3036 26.3272 98.1959 26.466 97.7921C26.6326 97.2806 25.9107 97.0114 26.0495 96.4999C26.2161 95.9076 27.1046 95.773 27.4378 96.2845C28.0487 97.1998 28.6318 96.8768 29.3259 96.3922C30.2422 95.7461 31.1585 95.1538 32.1303 94.5885C32.8522 94.1847 33.1576 93.5386 33.0466 92.8386C32.88 91.8156 33.4631 91.3041 34.1572 90.7926C37.739 88.0466 41.6541 85.7853 45.5136 83.4701C46.6797 82.7701 47.8737 82.0971 49.262 81.2895C48.79 85.4891 47.8965 89.4366 43.9537 91.5634C41.8435 92.721 39.7611 93.9324 37.6508 95.09C36.8456 95.5208 35.9898 95.773 35.4345 96.473C35.0735 96.9037 34.902 97.5937 34.2911 97.4322C33.597 97.2706 33.1527 96.7861 33.1527 96.1399C33.125 95.1169 32.764 95.2246 31.9033 95.8169C31.2924 96.2207 30.6538 96.5707 29.9874 96.8938C28.9878 97.3783 28.7102 97.9975 29.4043 98.9128C29.5709 99.1282 29.5758 99.0305 29.6591 99.2997C29.7702 99.5958 29.9041 100.205 29.6542 100.42C29.0156 100.959 28.3819 99.9727 27.9098 99.5958C27.3823 99.192 27.072 99.0743 26.3778 99.1013C25.4338 99.1013 24.5175 99.7743 24.0177 100.528C23.74 100.932 23.8233 101.255 24.1565 101.578C24.7118 102.116 25.1561 102.843 24.5175 103.382C23.7678 104.001 23.0181 103.678 22.3795 103.005C22.0741 102.682 21.9352 102.332 21.6576 102.09C21.4077 101.847 20.9683 101.803 20.774 101.965C20.5241 102.18 20.3803 102.601 20.1304 102.763C19.7695 102.978 19.464 103.274 19.1031 103.516C18.4367 103.974 17.7425 104.378 16.9929 104.674C16.2709 104.943 16.2154 105.266 16.7985 105.778C17.5482 106.424 18.3812 106.935 19.2974 107.285C21.2411 107.985 23.268 107.878 25.2949 107.985C28.5991 108.147 31.0703 106.989 32.764 104.216C33.4582 103.086 34.4022 102.224 35.5961 101.659C42.9542 98.2667 49.3175 93.1347 56.8977 90.1734C59.9242 88.9889 61.6457 86.7544 62.6175 83.7931C63.7837 80.0242 64.1446 76.2014 63.9502 72.2978ZM50.4559 61.987C49.5952 63.1446 48.79 64.383 48.2624 65.729C48.2069 65.8636 48.2069 65.9713 48.3179 66.1329C48.9566 66.1598 49.4008 65.0829 49.9284 65.5675C50.4559 66.0252 50.095 66.8867 49.9839 67.5597C49.8728 68.2596 49.734 68.9327 49.5952 69.6057C48.6234 75.0437 43.5977 79.5665 37.9056 80.1588C36.6562 80.2934 35.9898 79.9703 36.0453 78.6512C36.0453 78.5166 36.0453 78.382 35.9898 78.2743C35.7399 77.7359 35.9342 76.8744 35.2679 76.6859C34.6292 76.5244 34.4904 77.3859 34.0739 77.7628C33.6297 78.1666 33.3798 79.1358 32.519 78.6243C31.7138 78.1397 31.7138 77.2513 32.1581 76.5244C32.7967 75.4745 33.5186 74.4515 34.2683 73.4823C37.5447 69.2557 40.9044 65.1099 44.986 61.5563C45.9856 60.6679 47.0407 59.8602 48.3179 59.3487C49.0398 59.0526 49.734 58.9449 50.2893 59.618C50.9002 60.3179 51.1223 61.0986 50.4559 61.987ZM7.91334 89.0059C7.46908 89.7597 7.16366 91.7249 6.10854 91.698C4.9979 91.6711 4.58141 89.9212 4.16492 89.0059C2.22129 84.887 1.9763 82.3394 1.22661 77.8974C0.365865 72.7555 -0.0506266 67.5866 0.00490556 62.3639C-0.0228605 40.1271 4.16982 25.3426 19.1357 8.5438C21.4403 5.95937 24.0781 3.69799 26.827 1.57123C27.1324 1.32894 27.4656 1.05973 27.7988 0.871279C28.3819 0.521305 29.076 -0.340174 29.6313 0.144406C30.1589 0.628986 29.3537 1.35586 28.9927 1.89428C27.7155 3.69799 26.3827 5.44787 25.0777 7.22466C18.9969 15.4894 17.7474 19.7478 14.6099 29.4663C13.4437 33.0737 12.8884 36.7888 12.8884 40.5578C12.8606 49.1456 13.999 57.6258 16.609 65.8636C17.5531 68.825 18.3861 70.0903 20.1909 72.6747C20.6629 73.3477 21.0238 74.1284 21.2737 74.9091C21.8013 76.5244 21.2737 77.7359 19.6355 78.2743C13.8602 80.1857 10.6622 84.187 7.91334 89.0059Z"/>
    </symbol>
  </defs>
</svg>
